# xmcd
#
# Track frame offsets:
#	150
#	12135
#	27267
#	38952
#	57295
#	68930
#	84405
#	99732
#	113235
#	123132
#	135655
#	148155
#	161262
#	175025
#
# Disc length: 2498 seconds
#
# Revision: 1
# Processed by: cddbd v1.5.2PL0 Copyright (c) Steve Scherf et al.
# Submitted via: audiograbber 1.83.01
#
DISCID=b509c00e
DTITLE=The Galway Boys - Irish Collection - Volume 2
DYEAR=1997
DGENRE=National Folk
TTITLE0=Bold O'Donohue
TTITLE1=Forty Shades of Green
TTITLE2=Please Help Me I'm Falling
TTITLE3=The Lonesome Boatman
TTITLE4=Four Country Roads
TTITLE5=Amanda
TTITLE6=Gentle Mother
TTITLE7=21 Years
TTITLE8=Galway Shawl
TTITLE9=Jigs
TTITLE10=Three Pubs in Bohola
TTITLE11=Crystal Chandeliers
TTITLE12=Boys From The County Armagh
TTITLE13=Isle of Innisfree
EXTD=
EXTT0=
EXTT1=
EXTT2=
EXTT3=
EXTT4=
EXTT5=
EXTT6=
EXTT7=
EXTT8=
EXTT9=
EXTT10=
EXTT11=
EXTT12=
EXTT13=
PLAYORDER=
